<svg id="Capa_1" enable-background="new 0 0 512 512" height="512" viewBox="0 0 512 512" width="512" xmlns="http://www.w3.org/2000/svg"><g><path d="m256 512c-1.756 0-3.512-.309-5.186-.925-58.907-21.703-109.022-60.393-144.929-111.888-35.906-51.494-54.885-111.894-54.885-174.671v-169.516c0-6.035 3.617-11.482 9.179-13.824 64.89-27.322 130.774-41.176 195.821-41.176s130.931 13.854 195.821 41.176c5.562 2.342 9.179 7.789 9.179 13.824v169.516c0 62.777-18.979 123.178-54.886 174.673-35.907 51.494-86.022 90.185-144.929 111.887-1.673.615-3.429.924-5.185.924z" fill="#a2e786"/><path d="m406.114 399.188c35.907-51.495 54.886-111.895 54.886-174.672v-169.516c0-6.035-3.617-11.482-9.179-13.824-64.89-27.322-130.774-41.176-195.821-41.176v512c1.756 0 3.512-.309 5.186-.925 58.906-21.702 109.022-60.392 144.928-111.887z" fill="#00cb75"/><path d="m81 65.058v159.458c0 113.005 70.093 215.352 175 256.438 104.907-41.086 175-143.433 175-256.438v-159.458c-116.176-46.436-233.824-46.436-350 0z" fill="#fff5f5"/><path d="m431 224.516v-159.458c-58.088-23.218-116.544-34.827-175-34.827v450.723c104.907-41.086 175-143.433 175-256.438z" fill="#e2dff4"/><g><circle cx="256" cy="237" fill="#fff5f5" r="120"/><path d="m376 237c0-66.274-53.726-120-120-120v240c66.274 0 120-53.726 120-120z" fill="#e2dff4"/><path d="m256 242c-46.869 0-85 38.131-85 85v7.332l85 23.668 85-23.668v-7.332c0-46.869-38.131-85-85-85z" fill="#ff7037"/><path d="m341 334.332v-7.332c0-46.869-38.131-85-85-85v116z" fill="#ff4a4a"/><g><path d="m256 262c-27.57 0-50-22.43-50-50s22.43-50 50-50 50 22.43 50 50-22.43 50-50 50z" fill="#ffe4c2"/></g><path d="m306 212c0-27.57-22.43-50-50-50v100c27.57 0 50-22.43 50-50z" fill="#f2d1a5"/><g><path d="m256 372c-74.439 0-135-60.561-135-135s60.561-135 135-135 135 60.561 135 135-60.561 135-135 135zm0-240c-57.897 0-105 47.103-105 105s47.103 105 105 105 105-47.103 105-105-47.103-105-105-105z" fill="#e2dff4"/></g><path d="m361 237c0 57.897-47.103 105-105 105v30c74.439 0 135-60.561 135-135s-60.561-135-135-135v30c57.897 0 105 47.103 105 105z" fill="#d5d3ea"/></g></g></svg>