<svg width="194" height="184" viewBox="0 0 194 184" fill="none" xmlns="http://www.w3.org/2000/svg">
<g clip-path="url(#clip0)">
<path d="M161.276 165.084V180.566C161.276 182.309 159.787 183.721 157.949 183.721H36.5069C34.6686 183.721 33.1797 182.309 33.1797 180.566V165.084C33.1797 148.841 47.0665 135.681 64.2015 135.677C70.257 135.674 75.5888 132.72 78.6581 128.24C81.7416 123.747 81.4239 119.84 81.4239 116.682L81.4862 116.536C66.5555 110.676 56.0541 96.7276 56.0541 80.4528V79.2185C50.1255 79.2185 45.6566 74.7762 45.6566 69.5412V53.152C45.5235 47.4458 45.798 27.3222 61.128 13.311C78.9534 -2.97959 107.201 -1.64669 127.663 7.06842C128.329 7.35235 128.308 8.25541 127.634 8.51963L122.298 10.6018C121.5 10.9133 121.67 12.0293 122.527 12.1161L125.118 12.3803C137.524 13.6383 149.049 20.0267 156.194 30.6584C156.385 30.9463 156.331 31.384 156.086 31.6324C151.677 36.0531 149.215 41.921 149.215 48.0216V69.5412C149.215 74.8846 144.645 79.2185 139.009 79.2185H138.402V80.4528C138.402 96.7276 127.9 110.676 112.97 116.536L113.032 116.682C113.032 119.749 112.688 123.709 115.798 128.24C118.867 132.72 124.199 135.674 130.254 135.677C147.389 135.681 161.276 148.841 161.276 165.084Z" fill="#FFDFBA"/>
<path d="M161.276 165.084V180.566C161.276 182.308 159.787 183.721 157.949 183.721H36.5069C34.6694 183.721 33.1797 182.308 33.1797 180.566V165.084C33.1797 148.841 47.0686 135.683 64.1994 135.677C70.2566 135.675 75.5896 132.718 78.6581 128.24C89.3692 136.916 105.081 136.922 115.798 128.24C118.866 132.718 124.199 135.675 130.257 135.677C147.387 135.683 161.276 148.841 161.276 165.084Z" fill="#FE4F60"/>
<path d="M156.192 30.6604C156.385 30.9478 156.331 31.3832 156.085 31.6309C151.677 36.0547 149.215 41.9206 149.215 48.0216V69.5412C149.215 74.4264 145.334 79.2185 138.402 79.2185V54.8596C138.402 44.4054 129.464 35.9308 118.439 35.9308H76.0171C64.9917 35.9308 56.054 44.4054 56.054 54.8596V79.2185C50.1254 79.2185 45.6566 74.7762 45.6566 69.5412V53.1521C45.5235 47.4458 45.798 27.3222 61.128 13.311C78.9521 -2.97997 107.203 -1.64628 127.662 7.06962C128.327 7.35316 128.31 8.25661 127.635 8.52004L122.298 10.603C121.501 10.9145 121.669 12.0293 122.526 12.1165L125.118 12.3803C137.526 13.6371 149.048 20.0256 156.192 30.6604Z" fill="#42434D"/>
<path d="M138.402 80.4528C138.402 102.022 119.958 119.493 97.2281 119.493C75.8127 119.493 56.0542 103.707 56.0542 79.2185V54.8595C56.0542 44.4053 64.9918 35.9308 76.0173 35.9308H118.439C129.464 35.9308 138.402 44.4053 138.402 54.8595V80.4528Z" fill="#FFEBD2"/>
<path d="M130.916 177.017H120.934C119.097 177.017 117.607 175.604 117.607 173.862C117.607 172.12 119.097 170.707 120.934 170.707H130.916C132.753 170.707 134.243 172.12 134.243 173.862C134.243 175.604 132.754 177.017 130.916 177.017Z" fill="white"/>
<path d="M87.9053 105.663C94.6749 109.678 89.3369 119.526 81.9264 116.706C66.6904 110.908 56.0542 96.8293 56.0542 80.4528V54.8596C56.0542 50.8829 57.3476 47.1926 59.5569 44.1459C62.2661 40.4102 68.5311 42.0606 68.5311 46.9726V72.5658C68.5311 86.9635 76.5131 98.9044 87.9053 105.663Z" fill="#FFF3E4"/>
<path d="M113.502 123.157C103.256 127.224 91.9954 127.539 80.9541 123.157C81.5181 120.938 81.4241 119.501 81.4241 116.682L81.4865 116.536C91.5021 120.478 102.935 120.486 112.97 116.536L113.032 116.682C113.032 119.502 112.938 120.939 113.502 123.157Z" fill="#FFD6A6"/>
<path d="M80.9589 145.204C79.4209 145.662 77.7714 145.915 76.003 145.93C58.8281 146.073 44.8248 158.95 44.8248 175.236V178.2C44.8248 181.249 42.218 183.721 39.0023 183.721H36.5069C34.6694 183.721 33.1797 182.308 33.1797 180.566V165.084C33.1797 148.84 47.0686 135.683 64.1994 135.677C70.2566 135.675 75.5896 132.718 78.6581 128.24C79.895 129.242 81.2192 130.142 82.6142 130.93C88.7499 134.397 87.7721 143.172 80.9589 145.204Z" fill="#FF6D7A"/>
<path d="M113.497 145.204C115.035 145.662 116.684 145.915 118.453 145.93C135.628 146.073 149.631 158.95 149.631 175.236V178.2C149.631 181.249 152.238 183.721 155.454 183.721H157.949C159.787 183.721 161.276 182.308 161.276 180.566V165.084C161.276 148.84 147.387 135.683 130.256 135.677C124.199 135.675 118.866 132.718 115.798 128.24C114.561 129.242 113.237 130.142 111.842 130.93C105.706 134.397 106.684 143.172 113.497 145.204Z" fill="#E84857"/>
<path d="M127.634 8.51963C122.744 10.4279 122.047 10.8487 120.353 10.5994C93.039 6.58495 69.075 17.3006 60.9367 42.4573V42.4612C57.8923 45.7817 56.054 50.1195 56.054 54.8596V69.6567C56.054 76.0405 45.6566 76.4849 45.6566 69.5412V53.152C45.5235 47.4458 45.798 27.3222 61.128 13.311C78.9534 -2.97959 107.201 -1.64669 127.663 7.06842C128.329 7.35235 128.308 8.25541 127.634 8.51963Z" fill="#4D4E59"/>
</g>
<defs>
<clipPath id="clip0">
<rect width="193" height="183" fill="white" transform="translate(0.728027 0.720947)"/>
</clipPath>
</defs>
</svg>
